<svg xmlns="http://www.w3.org/2000/svg" version="1.1" xmlns:xlink="http://www.w3.org/1999/xlink" xmlns:svgjs="http://svgjs.com/svgjs" width="1440" height="800" preserveAspectRatio="none" viewBox="0 0 1440 800"><g mask="url(&quot;#SvgjsMask1087&quot;)" fill="none"><path d="M468.687,382.997C504.3,385.333,540.009,367.504,556.863,336.044C572.979,305.962,563.868,269.475,544.59,241.314C527.799,216.786,498.407,206.707,468.687,207.239C440.029,207.752,411.963,219.291,397.349,243.949C382.464,269.063,385.178,299.682,398.504,325.657C413.284,354.466,436.377,380.878,468.687,382.997" fill="rgba(46, 49, 51, 0.6)" class="triangle-float2"></path><path d="M747.252,225.489C777.972,222.996,805.552,208.228,821.768,182.018C838.967,154.218,845.909,119.764,830.497,90.935C814.286,60.611,781.634,43.065,747.252,42.631C712.079,42.187,679.336,59.216,660.282,88.784C639.388,121.208,627.656,163.546,648.361,196.091C668.145,227.189,710.515,228.47,747.252,225.489" fill="rgba(46, 49, 51, 0.6)" class="triangle-float2"></path><path d="M617.3698109957159 387.5524178791293L798.8447498327581 488.1456190883393 899.4379510419682 306.67068025129703 717.9630122049259 206.077479042087z" fill="rgba(46, 49, 51, 0.6)" class="triangle-float2"></path><path d="M1540.5763766051798 393.8330619711651L1317.8281156799749 429.11292061106747 1575.8562352450822 616.5813228963701z" fill="rgba(46, 49, 51, 0.6)" class="triangle-float1"></path><path d="M1007.641,779.26C1060.493,780.894,1109.414,748.059,1133.14,700.804C1154.84,657.583,1139.316,608.159,1114.338,566.745C1090.377,527.017,1053.974,495.121,1007.641,492.722C957.004,490.1,904.751,510.399,879.919,554.607C855.487,598.103,870.239,650.071,894.895,693.44C919.914,737.447,957.043,777.696,1007.641,779.26" fill="rgba(46, 49, 51, 0.6)" class="triangle-float2"></path><path d="M1117.109,248.462C1146.227,249.747,1178.721,248.585,1195.081,224.464C1213.018,198.018,1210.982,162.125,1194.048,135.026C1178.018,109.375,1147.334,98.521,1117.109,99.69C1088.998,100.777,1063.668,116.11,1049.828,140.602C1036.212,164.697,1035.566,194.587,1050.214,218.069C1064.107,240.341,1090.885,247.304,1117.109,248.462" fill="rgba(46, 49, 51, 0.6)" class="triangle-float1"></path><path d="M405.8888275697099 129.36100533604744L301.8247377337061 69.2795750562573 263.7346372320228 255.41642495015805z" fill="rgba(46, 49, 51, 0.6)" class="triangle-float3"></path><path d="M351.615,142.399C375.421,142.382,398.505,131.738,410.472,111.158C422.499,90.476,420.478,65.044,408.709,44.214C396.73,23.013,375.952,6.146,351.615,6.986C328.359,7.789,312.423,27.68,300.962,47.932C289.726,67.787,281.834,91.135,292.615,111.241C303.88,132.249,327.777,142.416,351.615,142.399" fill="rgba(46, 49, 51, 0.6)" class="triangle-float3"></path><path d="M873.953,244.661C928.943,244.22,976.59,208.854,1002.86,160.543C1027.951,114.402,1024.951,59.575,999.616,13.567C973.265,-34.286,928.582,-73.394,873.953,-73.552C819.1,-73.71,773.87,-34.998,747.027,12.838C720.818,59.544,715.695,115.663,741.415,162.64C768.157,211.483,818.27,245.108,873.953,244.661" fill="rgba(46, 49, 51, 0.6)" class="triangle-float2"></path><path d="M755.1788226932609 161.38012727181322L499.48178908802555 62.947537743914836 532.8150604132692 300.1260872795704z" fill="rgba(46, 49, 51, 0.6)" class="triangle-float3"></path><path d="M380.82369296440396 267.0696730321473L223.26573110570112 258.8124101427706 289.65881770098747 499.2779843755132z" fill="rgba(46, 49, 51, 0.6)" class="triangle-float2"></path><path d="M709.435,481.244C730.714,480.662,752.188,474.085,763.404,455.993C775.19,436.982,775.486,412.523,763.903,393.388C752.693,374.869,731.044,368.13,709.435,366.838C684.552,365.35,655.864,365.155,642.38,386.12C628.198,408.169,634.994,437.666,650.099,459.093C663.136,477.588,686.815,481.863,709.435,481.244" fill="rgba(46, 49, 51, 0.6)" class="triangle-float3"></path><path d="M803.044449782922 424.24127640267386L733.942957272339 382.72091083703657 706.2131551791746 507.13333238572983z" fill="rgba(46, 49, 51, 0.6)" class="triangle-float1"></path><path d="M1245.0181147707476 370.8648963335787L1054.8871232192828 428.99377394701884 1113.016000832723 619.1247654984836 1303.1469923841878 560.9958878850435z" fill="rgba(46, 49, 51, 0.6)" class="triangle-float2"></path><path d="M1029.35,535.353C1058.793,533.477,1087.191,521.507,1101.922,495.945C1116.634,470.416,1112.631,439.917,1099.571,413.504C1084.49,383.004,1063.301,351.412,1029.35,349.169C992.458,346.732,959.444,370.994,940.983,403.027C922.549,435.014,918.27,475.639,938.773,506.341C957.644,534.599,995.439,537.514,1029.35,535.353" fill="rgba(46, 49, 51, 0.6)" class="triangle-float3"></path><path d="M279.7269295907353 160.9353380740395L310.88532569225515 357.66170865485503 507.61169627307066 326.50331255333515 476.45330017155084 129.77694197251967z" fill="rgba(46, 49, 51, 0.6)" class="triangle-float3"></path><path d="M520.83,782.07C595.134,780.489,655.391,729.561,693.17,665.558C731.712,600.264,755.192,518.205,714.256,454.384C675.332,393.7,592.753,391.915,520.83,396.874C459.337,401.114,403.038,427.039,368.676,478.212C329.281,536.88,303.657,609.987,335.298,673.175C369.711,741.898,443.989,783.705,520.83,782.07" fill="rgba(46, 49, 51, 0.6)" class="triangle-float1"></path><path d="M1292.376,214.91C1316.108,214.55,1339.967,207.476,1352.934,187.596C1367.13,165.833,1371.116,137.165,1357.538,115.011C1344.425,93.615,1317.462,88.123,1292.376,88.784C1268.663,89.408,1245.597,98.258,1232.898,118.293C1219.257,139.815,1215.192,167.783,1228.55,189.482C1241.418,210.385,1267.833,215.282,1292.376,214.91" fill="rgba(46, 49, 51, 0.6)" class="triangle-float3"></path><path d="M235.704,684.951C311.842,686.333,392.687,665.725,431.209,600.036C470.077,533.757,449.318,452.552,411.065,385.916C372.611,318.93,312.93,258.043,235.704,259.468C160.204,260.861,107.602,326.024,71.202,392.185C36.436,455.376,16.787,530.278,52.117,593.155C88.039,657.086,162.384,683.62,235.704,684.951" fill="rgba(46, 49, 51, 0.6)" class="triangle-float3"></path><path d="M194.3786001196047 537.6035340485633L331.52521682686165 355.6038265444387 149.525509322737 218.45720983718172 12.378892615480055 400.4569173413064z" fill="rgba(46, 49, 51, 0.6)" class="triangle-float2"></path></g><defs><mask id="SvgjsMask1087"><rect width="1440" height="800" fill="#ffffff"></rect></mask><style>
            @keyframes float1 {
                0%{transform: translate(0, 0)}
                50%{transform: translate(-10px, 0)}
                100%{transform: translate(0, 0)}
            }

            .triangle-float1 {
                animation: float1 5s infinite;
            }

            @keyframes float2 {
                0%{transform: translate(0, 0)}
                50%{transform: translate(-5px, -5px)}
                100%{transform: translate(0, 0)}
            }

            .triangle-float2 {
                animation: float2 4s infinite;
            }

            @keyframes float3 {
                0%{transform: translate(0, 0)}
                50%{transform: translate(0, -10px)}
                100%{transform: translate(0, 0)}
            }

            .triangle-float3 {
                animation: float3 6s infinite;
            }
        </style></defs></svg>