<svg xmlns="http://www.w3.org/2000/svg" version="1.1" xmlns:xlink="http://www.w3.org/1999/xlink" xmlns:svgjs="http://svgjs.com/svgjs" width="1440" height="800" preserveAspectRatio="none" viewBox="0 0 1440 800"><g mask="url(&quot;#SvgjsMask1103&quot;)" fill="none"><path d="M655.32,239.128C678.298,238.796,701.551,229.494,712.226,209.144C722.336,189.871,714.334,167.322,702.602,148.991C691.943,132.337,675.091,119.949,655.32,120.227C635.978,120.499,620.948,134.149,610.289,150.291C598.02,168.872,585.424,190.972,595.491,210.832C606.181,231.922,631.677,239.47,655.32,239.128" fill="rgba(46, 49, 51, 0.6)" class="triangle-float2"></path><path d="M1053.8281307772245-54.80387766695354L885.8676359250733 46.11696924208542 1154.7489776862635 113.15661718519762z" fill="rgba(46, 49, 51, 0.6)" class="triangle-float1"></path><path d="M487.8,819.794C535.116,820.13,578.118,792.472,601.009,751.061C623.183,710.948,618.847,662.954,596.671,622.842C573.665,581.228,535.249,549.389,487.8,546.285C434.51,542.799,376.613,559.861,351.107,606.78C326.351,652.319,349.348,705.848,377.342,749.472C402.607,788.844,441.02,819.462,487.8,819.794" fill="rgba(46, 49, 51, 0.6)" class="triangle-float1"></path><path d="M1298.32,239.729C1333.422,239.817,1368.093,225.595,1386.009,195.409C1404.27,164.642,1402.483,125.95,1384.051,95.285C1366.165,65.528,1332.975,47.408,1298.32,49.522C1266.708,51.45,1245.223,77.56,1228.975,104.745C1212.126,132.936,1196.381,165.759,1211.388,194.972C1227.35,226.044,1263.388,239.642,1298.32,239.729" fill="rgba(46, 49, 51, 0.6)" class="triangle-float1"></path><path d="M913.1009198756059 201.30565902023312L726.8429335872304 118.16547534850191 742.3830704321989 295.7900522785615z" fill="rgba(46, 49, 51, 0.6)" class="triangle-float1"></path><path d="M191.996,519.105C232.903,519.104,267.86,493.648,289.356,458.844C312.189,421.876,325.607,375.666,303.799,338.084C282.051,300.605,235.327,291.373,191.996,291.063C147.956,290.748,99.493,298.372,77.388,336.464C55.226,374.654,71.162,421.446,94.632,458.847C116.376,493.498,151.088,519.106,191.996,519.105" fill="rgba(46, 49, 51, 0.6)" class="triangle-float2"></path><path d="M171.178,787.929C214.237,788.52,251.219,759.043,271.441,721.024C290.447,685.292,285.849,643.631,266.973,607.83C246.497,568.995,215.005,533.422,171.178,530.863C123.415,528.075,75.567,552.765,53.832,595.387C33.568,635.124,52.362,680.244,75.576,718.333C97.562,754.408,128.935,787.349,171.178,787.929" fill="rgba(46, 49, 51, 0.6)" class="triangle-float2"></path><path d="M622.6069390835542 507.20965024277564L466.1510740602081 518.1501100937224 633.547398934501 663.6655152661217z" fill="rgba(46, 49, 51, 0.6)" class="triangle-float1"></path><path d="M360.64702174073057 548.637899474698L343.6044910932392 743.4349161469376 538.4015077654788 760.4774467944289 555.4440384129701 565.6804301221894z" fill="rgba(46, 49, 51, 0.6)" class="triangle-float1"></path><path d="M227.41343389957842 408.9937540458915L122.47737536510839 203.0451431598372-83.47123552094587 307.98120169430723 21.464823013524153 513.9298125803615z" fill="rgba(46, 49, 51, 0.6)" class="triangle-float3"></path><path d="M598.3987173594802 158.72123485391393L734.6914166435536 257.743677140439 833.7138589300786 121.45097785636564 697.4211596460052 22.42853556984059z" fill="rgba(46, 49, 51, 0.6)" class="triangle-float2"></path><path d="M179.06164844133212 426.8829828245158L372.67810697156665 478.96017569990056 330.2772766795441 308.8997339985674z" fill="rgba(46, 49, 51, 0.6)" class="triangle-float2"></path></g><defs><mask id="SvgjsMask1103"><rect width="1440" height="800" fill="#ffffff"></rect></mask><style>
            @keyframes float1 {
                0%{transform: translate(0, 0)}
                50%{transform: translate(-10px, 0)}
                100%{transform: translate(0, 0)}
            }

            .triangle-float1 {
                animation: float1 5s infinite;
            }

            @keyframes float2 {
                0%{transform: translate(0, 0)}
                50%{transform: translate(-5px, -5px)}
                100%{transform: translate(0, 0)}
            }

            .triangle-float2 {
                animation: float2 4s infinite;
            }

            @keyframes float3 {
                0%{transform: translate(0, 0)}
                50%{transform: translate(0, -10px)}
                100%{transform: translate(0, 0)}
            }

            .triangle-float3 {
                animation: float3 6s infinite;
            }
        </style></defs></svg>